<?xml version="1.0" standalone="no"?>
<!DOCTYPE svg PUBLIC "-//W3C//DTD SVG 20010904//EN" "http://www.w3.org/TR/2001/REC-SVG-20010904/DTD/svg10.dtd">
<!-- Created using Krita: https://krita.org -->
<svg xmlns="http://www.w3.org/2000/svg" 
    xmlns:xlink="http://www.w3.org/1999/xlink"
    xmlns:krita="http://krita.org/namespaces/svg/krita"
    xmlns:sodipodi="http://sodipodi.sourceforge.net/DTD/sodipodi-0.dtd"
    width="95.52pt"
    height="94.8pt"
    viewBox="0 0 95.52 94.8">
<defs/>
<path id="shape0" transform="translate(1.99499768704281, 42.0229955430858)" fill="#ffffff" fill-rule="evenodd" stroke-opacity="0" stroke="#000000" stroke-width="0" stroke-linecap="square" stroke-linejoin="bevel" d="M0 11.25C4.51119 33.3438 16.4008 43.0864 29.7 47.88C41.3201 53.6674 65.5945 51.2958 77.04 39.24C84.7876 31.5937 90.4884 22.6373 92.25 11.16L69.3 4.05L59.4 12.6L47.7 9.36L42.21 0L15.39 7.11C15.39 7.11 10.26 8.49 0 11.25Z" sodipodi:nodetypes="cccccccccc"/><path id="shape1" transform="translate(1.94999917767979, 1.31598434177576)" fill="#cf3223" fill-rule="evenodd" stroke="none" stroke-width="19.2" stroke-linecap="square" stroke-linejoin="bevel" d="M0 46.714C0.157771 40.892 -0.328919 35.8135 5.85 23.044C11.8428 12.2703 21.7873 5.07785 35.46 1.26401C57.7052 -2.35647 61.8227 2.28936 73.26 9.00401C79.7353 13.9242 84.6037 19.5943 87.48 26.194C91.1795 32.6648 91.4581 38.8505 92.43 45.094L71.55 41.134L65.7 30.604L51.93 27.544L43.38 35.644L9.18 45.004C9.18 45.004 6.12 45.574 0 46.714Z" sodipodi:nodetypes="cccccccccccc"/><ellipse id="shape2" transform="translate(1.67999918639697, 1.04999916024546)" rx="46.3049985050044" ry="46.1249985108159" cx="46.3049985050044" cy="46.1249985108159" fill="none" stroke="#181919" stroke-width="2.1672" stroke-linecap="square" stroke-linejoin="bevel"/><path id="shape3" transform="translate(1.8149984269972, 35.5411739202614)" fill="#181818" fill-rule="evenodd" d="M0 10.1038C28.6917 -1.58123 58.9687 -4.19109 92.715 7.92883C92.445 12.1388 92.355 14.8188 92.085 19.0288C64.3963 5.2274 30.7812 10.4584 0.750001 21.7438C0.460002 19.2938 0.210001 15.4138 0 10.1038Z" sodipodi:nodetypes="ccccc"/><ellipse id="shape4" transform="translate(48.48, 31.44)" rx="10.56" ry="10.68" cx="10.56" cy="10.68" fill="#f7f7f7" fill-rule="evenodd"/><ellipse id="shape5" transform="translate(47.0051002878339, 29.8499982304134)" rx="12.1224498836874" ry="12.0000008949633" cx="12.1224498836874" cy="12.0000008949633" fill="none" stroke="#181818" stroke-width="5.76" stroke-linecap="square" stroke-linejoin="bevel"/><ellipse id="shape6" transform="translate(55.3799967118155, 37.7699977592341)" rx="3.93365962648254" ry="3.84000106394724" cx="3.93365962648254" cy="3.84000106394724" fill="#181818" fill-rule="evenodd" stroke="none" stroke-width="3.6" stroke-linecap="square" stroke-linejoin="bevel"/>
</svg>
